<svg width="1565" height="531" viewBox="0 0 1565 531" fill="none" xmlns="http://www.w3.org/2000/svg">
<path d="M753.865 144.327C440.335 15.9401 120.651 12.9206 0 27.4592V291.391L753.865 331.652V144.327Z" fill="#40AF92" fill-opacity="0.2"/>
<path d="M1032.5 56.2583C787.157 162.073 241.575 102.86 0 65.1409V514.251H1559.72V65.1409C1464.48 -50.3301 1168.92 14.5157 1032.5 56.2583Z" fill="url(#paint0_linear_302_6231)"/>
<path d="M1563.51 524.449V421.4C1567.3 416.446 1550.73 420.211 1454.11 474.906C1357.5 529.601 1215.64 497.696 1156.79 474.906C1061.91 456.675 1016.89 500.338 1006.24 524.449H1563.51Z" fill="#40AF92" fill-opacity="0.2" stroke="#E8F5F2"/>
<path d="M1319.06 489.915C1319.06 489.915 1343.43 491.871 1355.77 504.082C1355.77 504.082 1368.81 489.929 1392.23 490.23C1397.96 484.646 1401.61 477.861 1402.75 470.666C1403.89 463.471 1402.49 456.161 1398.69 449.588C1394.89 443.015 1388.86 437.45 1381.31 433.54C1373.75 429.63 1364.98 427.536 1356 427.502C1347.03 427.469 1338.23 429.497 1330.63 433.35C1323.03 437.204 1316.94 442.724 1313.07 449.268C1309.2 455.812 1307.7 463.111 1308.76 470.315C1309.83 477.518 1313.39 484.33 1319.06 489.956V489.915Z" fill="#40AF92"/>
<path opacity="0.3" d="M1319.06 489.915C1319.06 489.915 1343.43 491.871 1355.77 504.082C1355.77 504.082 1368.81 489.929 1392.23 490.23C1397.96 484.646 1401.61 477.861 1402.75 470.666C1403.89 463.471 1402.49 456.161 1398.69 449.588C1394.89 443.015 1388.86 437.45 1381.31 433.54C1373.75 429.63 1364.98 427.536 1356 427.502C1347.03 427.469 1338.23 429.497 1330.63 433.35C1323.03 437.204 1316.94 442.724 1313.07 449.268C1309.2 455.812 1307.7 463.111 1308.76 470.315C1309.83 477.518 1313.39 484.33 1319.06 489.956V489.915Z" fill="white"/>
<path d="M1354.96 430.212L1354.13 528.938H1358.26L1354.96 430.212Z" fill="#263238"/>
<path d="M1356.2 500.363C1356.2 500.363 1364.41 488.384 1379.23 484.733C1379.23 484.733 1363.6 487.728 1355.79 498.025L1356.2 500.363Z" fill="#263238"/>
<path d="M1356.2 466.448C1356.2 466.448 1364.41 454.483 1379.23 450.818C1379.23 450.818 1363.6 453.813 1355.79 464.123L1356.2 466.448Z" fill="#263238"/>
<path d="M1356.2 483.364C1356.2 483.364 1364.41 471.385 1379.23 467.734C1379.23 467.734 1363.6 470.729 1355.79 481.025L1356.2 483.364Z" fill="#263238"/>
<path d="M1354.98 475.159C1354.98 475.159 1347.05 463.194 1332.76 459.529C1332.76 459.529 1347.84 462.524 1355.37 472.834L1354.98 475.159Z" fill="#263238"/>
<path d="M1354.98 491.708C1354.98 491.708 1347.05 479.743 1332.76 476.092C1332.76 476.092 1347.84 479.086 1355.37 489.383L1354.98 491.708Z" fill="#263238"/>
<path d="M1394.6 482.434C1394.6 482.434 1423.62 484.759 1438.35 499.308C1438.35 499.308 1453.89 482.448 1481.81 482.79C1488.63 476.134 1492.97 468.051 1494.32 459.48C1495.68 450.909 1493.99 442.204 1489.46 434.376C1484.94 426.549 1477.76 419.923 1468.75 415.268C1459.75 410.613 1449.3 408.121 1438.61 408.082C1427.92 408.044 1417.44 410.46 1408.39 415.05C1399.34 419.64 1392.08 426.215 1387.47 434.009C1382.86 441.803 1381.08 450.496 1382.34 459.076C1383.6 467.657 1387.84 475.771 1394.58 482.475L1394.6 482.434Z" fill="#40AF92"/>
<path opacity="0.5" d="M1394.6 482.434C1394.6 482.434 1423.62 484.759 1438.35 499.308C1438.35 499.308 1453.89 482.448 1481.81 482.79C1488.63 476.134 1492.97 468.051 1494.32 459.48C1495.68 450.909 1493.99 442.204 1489.46 434.376C1484.94 426.549 1477.76 419.923 1468.75 415.268C1459.75 410.613 1449.3 408.121 1438.61 408.082C1427.92 408.044 1417.44 410.46 1408.39 415.05C1399.34 419.64 1392.08 426.215 1387.47 434.009C1382.86 441.803 1381.08 450.496 1382.34 459.076C1383.6 467.657 1387.84 475.771 1394.58 482.475L1394.6 482.434Z" fill="white"/>
<path d="M1437.39 411.276L1436.41 528.941H1441.31L1437.39 411.276Z" fill="#263238"/>
<path d="M1438.86 494.879C1438.86 494.879 1448.65 480.617 1466.29 476.255C1466.29 476.255 1447.69 479.824 1438.37 492.103L1438.86 494.879Z" fill="#263238"/>
<path d="M1438.86 454.457C1438.86 454.457 1448.65 440.195 1466.29 435.833C1466.29 435.833 1447.69 439.402 1438.37 451.681L1438.86 454.457Z" fill="#263238"/>
<path d="M1438.86 474.669C1438.86 474.669 1448.65 460.407 1466.29 456.045C1466.29 456.045 1447.69 459.614 1438.37 471.893L1438.86 474.669Z" fill="#263238"/>
<path d="M1437.4 464.768C1437.4 464.768 1427.95 450.506 1410.92 446.144C1410.92 446.144 1428.9 449.712 1437.88 461.992L1437.4 464.768Z" fill="#263238"/>
<path d="M1437.4 484.568C1437.4 484.568 1427.95 470.306 1410.92 465.944C1410.92 465.944 1428.9 469.513 1437.88 481.792L1437.4 484.568Z" fill="#263238"/>
<path d="M1472.54 496.026C1472.54 496.026 1493.11 497.667 1503.51 507.964C1507.25 504.299 1511.96 501.35 1517.28 499.328C1522.6 497.307 1528.41 496.263 1534.29 496.272C1539.12 491.561 1542.19 485.837 1543.15 479.767C1544.11 473.698 1542.92 467.533 1539.71 461.99C1536.51 456.447 1531.42 451.754 1525.05 448.458C1518.67 445.162 1511.27 443.397 1503.7 443.37C1496.14 443.344 1488.71 445.055 1482.3 448.307C1475.89 451.558 1470.76 456.214 1467.49 461.734C1464.23 467.254 1462.97 473.411 1463.86 479.487C1464.76 485.562 1467.77 491.308 1472.54 496.054V496.026Z" fill="#40AF92"/>
<path opacity="0.5" d="M1472.54 496.026C1472.54 496.026 1493.11 497.667 1503.51 507.964C1507.25 504.299 1511.96 501.35 1517.28 499.328C1522.6 497.307 1528.41 496.263 1534.29 496.272C1539.12 491.561 1542.19 485.837 1543.15 479.767C1544.11 473.698 1542.92 467.533 1539.71 461.99C1536.51 456.447 1531.42 451.754 1525.05 448.458C1518.67 445.162 1511.27 443.397 1503.7 443.37C1496.14 443.344 1488.71 445.055 1482.3 448.307C1475.89 451.558 1470.76 456.214 1467.49 461.734C1464.23 467.254 1462.97 473.411 1463.86 479.487C1464.76 485.562 1467.77 491.308 1472.54 496.054V496.026Z" fill="white"/>
<path d="M1502.83 445.652L1502.14 528.941H1505.61L1502.83 445.652Z" fill="#263238"/>
<path d="M1503.88 504.832C1503.88 504.832 1510.82 494.727 1523.3 491.65C1523.3 491.65 1510.12 494.166 1503.53 502.863L1503.88 504.832Z" fill="#263238"/>
<path d="M1503.88 476.228C1503.88 476.228 1510.82 466.123 1523.3 463.046C1523.3 463.046 1510.12 465.562 1503.53 474.259L1503.88 476.228Z" fill="#263238"/>
<path d="M1503.88 490.529C1503.88 490.529 1510.82 480.424 1523.3 477.348C1523.3 477.348 1510.12 479.864 1503.53 488.56L1503.88 490.529Z" fill="#263238"/>
<path d="M1502.85 483.515C1502.85 483.515 1496.09 473.423 1484.11 470.333C1484.11 470.333 1496.83 472.863 1503.19 481.546L1502.85 483.515Z" fill="#263238"/>
<path d="M1502.85 497.53C1502.85 497.53 1496.09 487.439 1484.11 484.349C1484.11 484.349 1496.83 486.878 1503.19 495.575L1502.85 497.53Z" fill="#263238"/>
<path d="M12.5562 484.881C12.5562 484.881 41.3344 487.192 55.9233 501.622C55.9233 501.622 71.3517 484.897 99.0307 485.253C105.799 478.654 110.109 470.636 111.459 462.133C112.81 453.631 111.145 444.992 106.659 437.225C102.173 429.458 95.0494 422.881 86.1191 418.26C77.1887 413.639 66.8185 411.165 56.2163 411.125C45.614 411.086 35.2161 413.482 26.2332 418.036C17.2504 422.59 10.0524 429.113 5.47752 436.847C0.902621 444.58 -0.860897 453.206 0.39232 461.718C1.64554 470.231 5.86391 478.28 12.5562 484.929V484.881Z" fill="#40AF92"/>
<path opacity="0.3" d="M12.5562 484.881C12.5562 484.881 41.3344 487.192 55.9233 501.622C55.9233 501.622 71.3517 484.897 99.0307 485.253C105.799 478.654 110.109 470.636 111.459 462.133C112.81 453.631 111.145 444.992 106.659 437.225C102.173 429.458 95.0494 422.881 86.1191 418.26C77.1887 413.639 66.8185 411.165 56.2163 411.125C45.614 411.086 35.2161 413.482 26.2332 418.036C17.2504 422.59 10.0524 429.113 5.47752 436.847C0.902621 444.58 -0.860897 453.206 0.39232 461.718C1.64554 470.231 5.86391 478.28 12.5562 484.929V484.881Z" fill="white"/>
<path d="M54.9851 414.332L54.0059 531H58.8622L54.9851 414.332Z" fill="#263238"/>
<path d="M56.3829 497.229C56.3829 497.229 66.0955 483.073 83.5823 478.759C83.5823 478.759 65.1163 482.298 55.8833 494.465L56.3829 497.229Z" fill="#263238"/>
<path d="M56.3829 457.153C56.3829 457.153 66.0955 443.014 83.5823 438.684C83.5823 438.684 65.1163 442.222 55.8833 454.406L56.3829 457.153Z" fill="#263238"/>
<path d="M56.3829 477.143C56.3829 477.143 66.0955 462.987 83.5823 458.673C83.5823 458.673 65.1163 462.212 55.8833 474.379L56.3829 477.143Z" fill="#263238"/>
<path d="M55.0057 467.448C55.0057 467.448 45.6128 453.309 28.7456 448.979C28.7456 448.979 46.5521 452.517 55.4654 464.701L55.0057 467.448Z" fill="#263238"/>
<path d="M55.0057 487C55.0057 487 45.6128 472.861 28.7456 468.547C28.7456 468.547 46.5521 472.086 55.4654 484.253L55.0057 487Z" fill="#263238"/>
<path d="M69.575 469.241C69.575 469.241 108.126 472.295 127.651 491.686C127.651 491.686 148.295 469.305 185.367 469.758C194.407 460.917 200.157 450.183 201.948 438.803C203.739 427.424 201.497 415.867 195.483 405.477C189.47 395.088 179.931 386.292 167.978 380.114C156.024 373.935 142.147 370.628 127.96 370.577C113.773 370.525 99.8594 373.732 87.8378 379.823C75.8163 385.915 66.1808 394.641 60.0522 404.987C53.9235 415.332 51.5536 426.872 53.2182 438.264C54.8828 449.656 60.5134 460.432 69.4551 469.338L69.575 469.241Z" fill="#40AF92"/>
<path opacity="0.5" d="M69.575 469.241C69.575 469.241 108.126 472.295 127.651 491.686C127.651 491.686 148.295 469.305 185.367 469.758C194.407 460.917 200.157 450.183 201.948 438.803C203.739 427.424 201.497 415.867 195.483 405.477C189.47 395.088 179.931 386.292 167.978 380.114C156.024 373.935 142.147 370.628 127.96 370.577C113.773 370.525 99.8594 373.732 87.8378 379.823C75.8163 385.915 66.1808 394.641 60.0522 404.987C53.9235 415.332 51.5536 426.872 53.2182 438.264C54.8828 449.656 60.5134 460.432 69.4551 469.338L69.575 469.241Z" fill="white"/>
<path d="M126.37 374.758L125.071 530.999H131.586L126.37 374.758Z" fill="#263238"/>
<path d="M128.33 485.77C128.33 485.77 141.34 466.831 164.762 461.03C164.762 461.03 140.041 465.765 127.67 482.037L128.33 485.77Z" fill="#263238"/>
<path d="M128.33 432.106C128.33 432.106 141.34 413.168 164.762 407.383C164.762 407.383 140.041 412.117 127.67 428.39L128.33 432.106Z" fill="#263238"/>
<path d="M128.33 458.931C128.33 458.931 141.34 439.993 164.762 434.208C164.762 434.208 140.041 438.943 127.67 455.215L128.33 458.931Z" fill="#263238"/>
<path d="M126.331 445.777C126.331 445.777 113.78 426.839 91.1772 421.054C91.1772 421.054 115.039 425.788 126.97 442.06L126.331 445.777Z" fill="#263238"/>
<path d="M126.331 472.083C126.331 472.083 113.78 453.144 91.1772 447.359C91.1772 447.359 115.039 452.094 126.97 468.366L126.331 472.083Z" fill="#263238"/>
<defs>
<linearGradient id="paint0_linear_302_6231" x1="780.135" y1="-0.068759" x2="779.904" y2="514.251" gradientUnits="userSpaceOnUse">
<stop stop-color="#D2ECE6"/>
<stop offset="1" stop-color="#FEFEFE"/>
</linearGradient>
</defs>
</svg>
